<svg xmlns="http://www.w3.org/2000/svg" width="291" height="29" viewBox="0 0 519.36 53.29">
	<defs>
	<style>.cls-1{fill:#040000;}</style>
</defs>
<title>アセット 1</title>
<g id="レイヤー_2" data-name="レイヤー 2">
	<g id="レイヤー_1-2" data-name="レイヤー 1">
	<path class="cls-1" d="M133.9,17V36.87h2.65l2.6-3.64s2.93,2.46,4.68,4.26c-.14.52-.62.76-1.28.76H133.9v8.66c0,.52-1.84,1.42-3.69,1.42h-.9V38.24H120l-.38-1.37h9.7V22.39A46.07,46.07,0,0,1,110,40.08l-.47-.61c7.71-5.53,13.67-14.14,16.79-22.47H110.34L110,15.63h19.35V4.37l6.53.71c-.09.71-.52,1.28-1.94,1.47v9.08h11.49l2.93-3.83s3.31,2.6,5.25,4.45c-.14.52-.66.76-1.32.76H134.89m.46,1.52a41.67,41.67,0,0,0,18.94,16.55l-.14.52a5.5,5.5,0,0,0-4.16,4c-6.77-4.37-11.73-11.65-15.1-21Z"/>
<path class="cls-1" d="M160.36,27.7l.61-.52a5.4,5.4,0,0,0,2.84,1.47,4.28,4.28,0,0,0,2.51-1.37c2.27-2,6.34-6.67,7.85-8.23a4.85,4.85,0,0,1,3.45-1.89,6,6,0,0,1,4.26,2c6.24,6,13.15,12.49,18.35,15.94a5.31,5.31,0,0,1,2.41,4.3,1.87,1.87,0,0,1-1.94,2.13c-1.56,0-3.93-1.89-7.38-5.39-2.93-3-10.41-11.16-13.48-14.24-.9-.9-1.51-1.23-2.08-1.23s-1,.28-1.7,1.18c-1.51,1.8-5,6.76-6.53,9-1.09,1.51-1.8,2.74-3.36,2.74a7,7,0,0,1-4.82-2.84A5.93,5.93,0,0,1,160.36,27.7Zm27.72-11a5.49,5.49,0,1,1,5.49,5.49A5.49,5.49,0,0,1,188.08,16.72Zm1.75,0A3.74,3.74,0,1,0,193.57,13,3.71,3.71,0,0,0,189.83,16.72Z"/>
<path class="cls-1" d="M213.66,22.92l.52-.52a14.86,14.86,0,0,1,3.5,2c2.37,1.51,3.74,3.45,3.74,5.44A2,2,0,0,1,219.34,32c-1.8,0-1.89-2.13-3.12-4.73A19.87,19.87,0,0,0,213.66,22.92Zm3.12,23.79-.47-.76c12-6.05,20.25-18.73,20.25-23.08,0-.8-.85-1.51-2.41-2.27l.14-.61a13.31,13.31,0,0,1,2.46-.19c2.18.14,4.92,2.65,4.92,4.21,0,.9-1,1.56-1.56,2.65A38.29,38.29,0,0,1,216.78,46.71Zm5.16-26.4.47-.52a16.07,16.07,0,0,1,3.78,2c1.94,1.28,3.22,3,3.22,5.16a2,2,0,0,1-2.13,2.08c-1.84,0-1.7-2-2.89-4.59A17.92,17.92,0,0,0,221.94,20.32Z"/>
<path class="cls-1" d="M251.12,8.54a11.17,11.17,0,0,1,4-1c2.08.09,5.77,2.08,5.77,3.45,0,1.18-.95,1.56-1.18,3.22-.24,2-.33,4.92-.43,7.66A34.17,34.17,0,0,1,271,25.62c1.84,1.09,3.12,2.41,3.12,4.45a2.2,2.2,0,0,1-2.22,2.36c-2.37,0-2.74-2.18-6.05-5a29.92,29.92,0,0,0-6.62-3.78c-.09,4.16,0,11,0,15.52,0,2.32.14,3.83.14,4.54,0,1.94-.52,2.74-2,2.74-2,0-3.17-2.6-3.17-5.3,0-1.14.43-2.13.61-4.12.38-3.5.43-10.45.43-13.62a115.27,115.27,0,0,0-.43-11.68c-.24-1.56-1.51-2-3.69-2.32Z"/>
<path class="cls-1" d="M289.12,24.43c2.08-.14,4.49-.28,7-.43a25.55,25.55,0,0,0-1.75-3.93l.57-.24c9.6,4.73,5.53,11.92,2.18,8.66a12.75,12.75,0,0,0-.66-3.41l-2.41.71V47.09c0,.28-1.37,1.23-3.41,1.23h-.71V32.57a1.86,1.86,0,0,1-1.09.33c-1.23,4.54-3.12,8.89-5.58,11.78l-.76-.38a51.09,51.09,0,0,0,2.7-13.67l4.73,1V26.94c-1.42.38-3,.8-4.68,1.23a1.6,1.6,0,0,1-1.23,1l-1.32-4.45c1.09,0,2.74-.09,4.73-.19Zm-1.34-.57a101.29,101.29,0,0,0,6.78-13.62l5.58,2.41a1.7,1.7,0,0,1-1.89.71,42.54,42.54,0,0,1-9.87,10.49Zm-.24-11.19A51,51,0,0,0,290,4.28l5.91,2.18c-.24.57-.8.9-1.84.85a27.52,27.52,0,0,1-5.88,5.36Zm.74.93c4.16,3.12,1.56,7.28-1.32,5.2-.38-2.41-2.27-5.2-3.93-7l.47-.33a15.93,15.93,0,0,1,3.64,1.37Zm7.1,16.32c8.28,5,4.16,11.35,1.23,8.28a21.33,21.33,0,0,0-1.8-8.09Zm8.28,3.83c.95,4.54,0,8.14-1.47,9.74-.95,1.14-3.07,1.32-3.83.09a2.53,2.53,0,0,1,1.09-3.17,12.45,12.45,0,0,0,3.45-6.76Zm-4-16.7a34.13,34.13,0,0,0,6.81-12.3l5.63,2.41a1.62,1.62,0,0,1-1.84.71,26.47,26.47,0,0,1-10,9.7ZM308,23c2.84,0,6.24-.19,9.79-.33a23.57,23.57,0,0,0-3-4.35l.47-.33c11.87,4.12,8.37,12.68,4.35,9.51a12.34,12.34,0,0,0-1.23-3.74c-3.31.85-7.66,2-13.48,3.36a1.83,1.83,0,0,1-1.28.95l-1.84-5c1.09,0,2.7,0,4.59,0Zm-1.49-.4a98.82,98.82,0,0,0,3.2-10L315.66,14c-.19.57-.71,1-1.8,1-1.4,2.62-5.33,6.38-6.7,7.52ZM319.35,43c1,.43,1.28.9,1.28,1.66,0,1.56-1.51,2.46-7.14,2.46H310c-3.45,0-4-.85-4-3.41v-12l5.2.52c-.09.61-.57,1-1.42,1.18v9.27c0,.57.14.71,1.23.71h5.39a.81.81,0,0,0,.8-.57,43.6,43.6,0,0,0,1.47-5.58h.57ZM308.8,28.12c11.26,2.6,8.23,10.74,4.4,8-.47-2.65-2.7-5.82-4.82-7.62ZM315,4.62c2.41,4.16,7.43,7.43,12,8.89l0,.47c-1.7.38-2.89,1.75-3.41,4-4.26-2.74-7.28-7.19-9.13-13Zm4.26,27.53c11.31,5.49,7.38,13.81,3.55,10.41-.24-3.31-2.27-7.43-4.07-10.08Z"/>
<path class="cls-1" d="M96.63,6.6,94.21,9.2H74.91l-5-2.08V47.94h.8c2,0,3.83-1.13,3.83-1.75V43.5H94.69v4.12h.76c1.75,0,4-1.13,4.07-1.51V11.43a3.87,3.87,0,0,0,1.94-1ZM94.69,42.13H74.54V26.75h18V25.38h-18V10.58H94.69Z"/>
<path class="cls-1" d="M360.93,30.63h-16V32H361.4V43.12H342.71V32l0-1.47-4.73-2V48.23h.66c1.94,0,4-1,4-1.47V44.49H361.4V47.8h.8c1.51,0,3.88-.85,3.93-1.18V32.85a4,4,0,0,0,2-1L363.24,28Z"/>
<path class="cls-1" d="M363.39,22.68c-1.89-1.75-5-4.12-5-4.12l-2.74,3.5H340.92l.38,1.37h20.81C362.77,23.44,363.24,23.21,363.39,22.68Z"/>
<path class="cls-1" d="M353.31,7.41c-4.45,7-14,14.62-23.23,18.5l-.33-.66c8.14-4.73,17.17-14.33,19.39-21.14l7.14,1.8c-.19.57-.8.85-2.18.95h-.44Z"/>
<path class="cls-1" d="M354.19,8.27c3.26,6.82,9.19,12.28,16.38,15.79a5.3,5.3,0,0,1,3.69-4l0-.71c-7.4-2.48-15.6-6.39-20-11.83Z"/>
<path class="cls-1" d="M419,21l-2.32,3.41H416V10h4.78c.66,0,1.18-.24,1.32-.76-1.75-1.66-4.63-3.93-4.63-3.93l-2.6,3.31H399.8V10h1.71V24.43h-5.3l.38,1.37h4.92c-.14,8.51-1.61,16-9.32,22l.47.52c11.16-5.39,13-13.91,13.15-22.56h5.82V48.18h.76c2.22,0,3.59-.95,3.59-1.28V25.81h5.82c.66,0,1.13-.24,1.28-.76C421.57,23.39,419,21,419,21Zm-7.33,3.41h-5.82V10h5.82Z"/>
<path class="cls-1" d="M395.27,41.7V23.77a3.53,3.53,0,0,0,1.75-.85l-4.3-3.26-2,2.18h-3.83l-.8-.33a56.47,56.47,0,0,0,3.12-11.68h7.71a2.06,2.06,0,0,0,.57,0c.43-.07.64-.75.64-.75l-.46-.43c-1.84-1.56-4.16-3.41-4.16-3.41l-2.6,3.26H378.34l.38,1.37h5.82c-1.09,8.47-3.17,17.17-6.86,23.7l.66.52a41.26,41.26,0,0,0,3.93-5.16V45.2H383c2,0,3.31-.95,3.31-1.28V39.67h4.87v3.22h.66C393.24,42.88,395.22,42,395.27,41.7Zm-4.12-3.41h-4.87V23.21h4.87Z"/>
<path class="cls-1" d="M436.85,11.81h3.83c-1,6.57-4.54,11-12.49,14l.19.66c10.26-2.22,15.75-6.62,17.41-14.71H451V20c0,2.89.71,3.74,4.78,3.74h4.4c7,0,8.56-.71,8.56-2.55,0-.76-.24-1.32-1.56-1.8l-.14-3.31h-.52A15.08,15.08,0,0,1,465,19.42a1.34,1.34,0,0,1-1.09.38c-.57,0-1.89,0-3.26,0H457c-1.32,0-1.47-.14-1.47-.76V11.81h7.24a42.48,42.48,0,0,1-2,4.82l.47.33A38,38,0,0,0,468,12.75c.95,0,1.42-.14,1.8-.52l-4.54-4.4-2.65,2.6H450.81V6.18c1.18-.19,1.56-.62,1.61-1.23l-6.24-.57v6.05h-9.32Z"/>
<path class="cls-1" d="M469.54,42.5l-.14-5.72h-.57a33.36,33.36,0,0,1-1.7,5.53.93.93,0,0,1-.9.57h-5.58c-1.09,0-1.28-.14-1.28-.76V31.53a2.58,2.58,0,0,0,1.66-.71l-4.4-3.6-2.32,2.51h-6.86a40.14,40.14,0,0,0,.47-5.44c1-.14,1.61-.57,1.7-1.37l-7-.47a41.37,41.37,0,0,1-.14,7.28H429.1l.43,1.37h12.72c-1.18,6.91-5.11,12.72-15.51,16.51l.33.57c13.48-3.07,18.45-9.18,20.1-17.08h7.62V43.21c0,3.12.66,4.12,4.59,4.12h3.79c6.05,0,7.9-1,7.9-2.93C471.05,43.54,470.82,43,469.54,42.5Z"/>
<path class="cls-1" d="M431.7,18.24c1.61-1,3-3.49,3-6.43a12.93,12.93,0,0,0-.76-4.45h-.71a7.69,7.69,0,0,1-4,6.53,2.8,2.8,0,0,0-1.75,3.36C428.06,18.9,430.19,19.18,431.7,18.24Z"/>
<path class="cls-1" d="M496.84,10a1.19,1.19,0,0,0,1.28-.76c-1.75-1.7-4.64-4-4.64-4l-2.6,3.41H475.46l.38,1.37Z"/>
<path class="cls-1" d="M503.18,10.1l-4.45-1.42v13.1c0,9.08-1.18,18.4-8.8,25.88l.47.57c11.59-6.86,12.77-17.69,12.77-26.35V11.57"/>
<path class="cls-1" d="M504.35,11.34a98.38,98.38,0,0,0,11.42-2.51c1.33.43,2.27.38,2.74-.14l-5.25-4.21C511.17,6,507.39,9.37,503.81,11Z"/>
<path class="cls-1" d="M514.82,17.06l-2.55,3.36h-6.9v1.32h3.82V48.28h.76c2.32,0,3.74-1,3.74-1.28V21.74h4.4c.66,0,1.13-.24,1.28-.76C517.61,19.37,514.82,17.06,514.82,17.06Z"/>
<path class="cls-1" d="M490.27,32.43H491c1.37,0,3.5-.8,3.55-1.14V18.62a3.36,3.36,0,0,0,2-1l-4.59-3.45-2.08,2.32h-6.43l-5.16-2.18V25c0,7.38-.24,15.94-3.83,22.89l.57.43c5.77-5.25,7.24-12.63,7.62-18.83h7.66Zm-7.62-4.3c0-1.09,0-2.13,0-3.12V17.86h7.57V28.12Z"/>
<path class="cls-1" d="M133.9,17V36.87h2.65l2.6-3.64s2.93,2.46,4.68,4.26c-.14.52-.62.76-1.28.76H133.9v8.66c0,.52-1.84,1.42-3.69,1.42h-.9V38.24H120l-.38-1.37h9.7V22.39A46.07,46.07,0,0,1,110,40.08l-.47-.61c7.71-5.53,13.67-14.14,16.79-22.47H110.34L110,15.63h19.35V4.37l6.53.71c-.09.71-.52,1.28-1.94,1.47v9.08h11.49l2.93-3.83s3.31,2.6,5.25,4.45c-.14.52-.66.76-1.32.76H134.89m.46,1.52a41.67,41.67,0,0,0,18.94,16.55l-.14.52a5.5,5.5,0,0,0-4.16,4c-6.77-4.37-11.73-11.65-15.1-21Z"/>
<path class="cls-1" d="M160.36,27.7l.61-.52a5.4,5.4,0,0,0,2.84,1.47,4.28,4.28,0,0,0,2.51-1.37c2.27-2,6.34-6.67,7.85-8.23a4.85,4.85,0,0,1,3.45-1.89,6,6,0,0,1,4.26,2c6.24,6,13.15,12.49,18.35,15.94a5.31,5.31,0,0,1,2.41,4.3,1.87,1.87,0,0,1-1.94,2.13c-1.56,0-3.93-1.89-7.38-5.39-2.93-3-10.41-11.16-13.48-14.24-.9-.9-1.51-1.23-2.08-1.23s-1,.28-1.7,1.18c-1.51,1.8-5,6.76-6.53,9-1.09,1.51-1.8,2.74-3.36,2.74a7,7,0,0,1-4.82-2.84A5.93,5.93,0,0,1,160.36,27.7Zm27.72-11a5.49,5.49,0,1,1,5.49,5.49A5.49,5.49,0,0,1,188.08,16.72Zm1.75,0A3.74,3.74,0,1,0,193.57,13,3.71,3.71,0,0,0,189.83,16.72Z"/>
<path class="cls-1" d="M213.66,22.92l.52-.52a14.86,14.86,0,0,1,3.5,2c2.37,1.51,3.74,3.45,3.74,5.44A2,2,0,0,1,219.34,32c-1.8,0-1.89-2.13-3.12-4.73A19.87,19.87,0,0,0,213.66,22.92Zm3.12,23.79-.47-.76c12-6.05,20.25-18.73,20.25-23.08,0-.8-.85-1.51-2.41-2.27l.14-.61a13.31,13.31,0,0,1,2.46-.19c2.18.14,4.92,2.65,4.92,4.21,0,.9-1,1.56-1.56,2.65A38.29,38.29,0,0,1,216.78,46.71Zm5.16-26.4.47-.52a16.07,16.07,0,0,1,3.78,2c1.94,1.28,3.22,3,3.22,5.16a2,2,0,0,1-2.13,2.08c-1.84,0-1.7-2-2.89-4.59A17.92,17.92,0,0,0,221.94,20.32Z"/>
<path class="cls-1" d="M96.63,6.6,94.21,9.2H74.91l-5-2.08V47.94h.8c2,0,3.83-1.13,3.83-1.75V43.5H94.69v4.12h.76c1.75,0,4-1.13,4.07-1.51V11.43a3.87,3.87,0,0,0,1.94-1ZM94.69,42.13H74.54V26.75H92.23l.28-1.37h-18V10.58H94.69Z"/>
<path class="cls-1" d="M5.88,41.32a3.19,3.19,0,0,0,3-.84L18,31.33a15.88,15.88,0,0,1-6.54-4.22A12.13,12.13,0,0,1,8,19.76a8.29,8.29,0,0,1,2.7-6.47,5.58,5.58,0,0,1,2.89-1.59,3,3,0,0,1,2.87.92A3.61,3.61,0,0,1,17.59,15a3,3,0,0,1-1,2.32,4.45,4.45,0,0,1-1.43.95,9.24,9.24,0,0,1-1.6.52L12,19.2a6.92,6.92,0,0,0-1.54.54c-.15.67-.52,3,2.17,5.72,4.63,4.63,9.24,1.33,10.3.5a36.29,36.29,0,0,0,3.34-3l14-14a3.48,3.48,0,0,0,.87-1.3,4.49,4.49,0,0,0-1.85-4.58,26.65,26.65,0,0,0-36,36.25A7.1,7.1,0,0,0,5.88,41.32Z"/>
<path class="cls-1" d="M50.05,13.91a4,4,0,0,0-4.33-2,4,4,0,0,0-1.36.91l-8.8,8.8L40,26.08a13.43,13.43,0,0,1,4.2,7.75,8,8,0,0,1-2.43,7,11.24,11.24,0,0,1-4.46,2.84,10.32,10.32,0,0,1-4.87.39,13.67,13.67,0,0,1-4.63-1.58,18.36,18.36,0,0,1-4.07-3.1l-3-3-8,8a3,3,0,0,0-.8,3,5.08,5.08,0,0,0,1.94,2.64A26.65,26.65,0,0,0,50.05,13.91Z"/>
<path class="cls-1" d="M31.63,39.71a7.07,7.07,0,0,0,2.69-1,11.76,11.76,0,0,0,1.92-1.52,13.64,13.64,0,0,0,1.91-2.41A7.08,7.08,0,0,0,39.19,32a6.13,6.13,0,0,0-.35-3.07,9,9,0,0,0-2.16-3.12l-2.62-2.62L22.41,34.84l1.9,1.9a10.41,10.41,0,0,0,3.88,2.64A6.76,6.76,0,0,0,31.63,39.71Z"/>
</g>
</g>
</svg>